# xmcd
#
# Track frame offsets:
#	150
#	15117
#	30325
#	50386
#	65255
#	86393
#	105180
#	124289
#	139936
#	159530
#	177242
#
# Disc length: 2705 seconds
#
# Revision: 1
# Processed by: cddbd v1.5.2PL0 Copyright (c) Steve Scherf et al.
# Submitted via: audiograbber 1.83.01
#
DISCID=7a0a8f0b
DTITLE=Blackberry Smoke - Bad Luck Ain't No Crime
DYEAR=2004
DGENRE=Southern Rock
TTITLE0=Testify
TTITLE1=Sanctified
TTITLE2=Another Chance
TTITLE3=Nothin For You
TTITLE4=Normaltown
TTITLE5=Train Rollin
TTITLE6=Angeline
TTITLE7=Sure Was Good
TTITLE8=Scare The Devil
TTITLE9=Muscadine
TTITLE10=Freeborn Man
EXTD=
EXTT0=
EXTT1=
EXTT2=
EXTT3=
EXTT4=
EXTT5=
EXTT6=
EXTT7=
EXTT8=
EXTT9=
EXTT10=
PLAYORDER=
